{
    "asset" : {
        "generator" : "Khronos glTF Blender I/O v1.6.16",
        "version" : "2.0"
    },
    "scene" : 0,
    "scenes" : [
        {
            "name" : "Scene",
            "nodes" : [
                0,
                1,
                4
            ]
        }
    ],
    "nodes" : [
        {
            "name" : "Light",
            "rotation" : [
                0.16907575726509094,
                0.7558803558349609,
                -0.27217137813568115,
                0.570947527885437
            ],
            "translation" : [
                4.076245307922363,
                5.903861999511719,
                -1.0054539442062378
            ]
        },
        {
            "name" : "Camera",
            "rotation" : [
                0.483536034822464,
                0.33687159419059753,
                -0.20870360732078552,
                0.7804827094078064
            ],
            "translation" : [
                7.358891487121582,
                4.958309173583984,
                6.925790786743164
            ]
        },
        {
            "mesh" : 0,
            "name" : "BF",
            "rotation" : [
                0,
                -0.08715575188398361,
                0,
                0.9961947202682495
            ],
            "translation" : [
                -0.01662556082010269,
                -0.00011548211477929726,
                0.09176219254732132
            ]
        },
        {
            "mesh" : 1,
            "name" : "Griff",
            "rotation" : [
                0,
                -0.08715575188398361,
                0,
                0.9961947202682495
            ]
        },
        {
            "children" : [
                2,
                3
            ],
            "name" : "TRISA_Compact_Soft",
            "rotation" : [
                0.704416036605835,
                0.06162843108177185,
                0.06162843108177185,
                0.704416036605835
            ],
            "scale" : [
                0.009999998845160007,
                0.009999999776482582,
                0.009999998845160007
            ],
            "translation" : [
                0.001789577305316925,
                -0.006270430516451597,
                -0.0015841639833524823
            ]
        }
    ],
    "materials" : [
        {
            "doubleSided" : true,
            "name" : "logo",
            "pbrMetallicRoughness" : {
                "baseColorFactor" : [
                    0.49000000953674316,
                    0.8044999837875366,
                    1,
                    1
                ],
                "metallicFactor" : 0,
                "roughnessFactor" : 0.7171573042869568
            }
        }
    ],
    "meshes" : [
        {
            "name" : "Mesh",
            "primitives" : [
                {
                    "attributes" : {
                        "POSITION" : 0,
                        "NORMAL" : 1,
                        "TEXCOORD_0" : 2
                    },
                    "indices" : 3,
                    "material" : 0
                }
            ]
        },
        {
            "name" : "Mesh.001",
            "primitives" : [
                {
                    "attributes" : {
                        "POSITION" : 4,
                        "NORMAL" : 5,
                        "TEXCOORD_0" : 6
                    },
                    "indices" : 7,
                    "material" : 0
                }
            ]
        }
    ],
    "accessors" : [
        {
            "bufferView" : 0,
            "componentType" : 5126,
            "count" : 8460,
            "max" : [
                2.366340398788452,
                0.5099999904632568,
                -1.1097522974014282
            ],
            "min" : [
                0.04637246951460838,
                -0.5099999904632568,
                -2.209861993789673
            ],
            "type" : "VEC3"
        },
        {
            "bufferView" : 1,
            "componentType" : 5126,
            "count" : 8460,
            "type" : "VEC3"
        },
        {
            "bufferView" : 2,
            "componentType" : 5126,
            "count" : 8460,
            "type" : "VEC2"
        },
        {
            "bufferView" : 3,
            "componentType" : 5123,
            "count" : 10080,
            "type" : "SCALAR"
        },
        {
            "bufferView" : 4,
            "componentType" : 5126,
            "count" : 64329,
            "max" : [
                18.84991455078125,
                0.7852218151092529,
                -0.6210783123970032
            ],
            "min" : [
                -0.1736481785774231,
                -0.7851657271385193,
                -3.857532501220703
            ],
            "type" : "VEC3"
        },
        {
            "bufferView" : 5,
            "componentType" : 5126,
            "count" : 64329,
            "type" : "VEC3"
        },
        {
            "bufferView" : 6,
            "componentType" : 5126,
            "count" : 64329,
            "type" : "VEC2"
        },
        {
            "bufferView" : 7,
            "componentType" : 5123,
            "count" : 86856,
            "type" : "SCALAR"
        }
    ],
    "bufferViews" : [
        {
            "buffer" : 0,
            "byteLength" : 101520,
            "byteOffset" : 0
        },
        {
            "buffer" : 0,
            "byteLength" : 101520,
            "byteOffset" : 101520
        },
        {
            "buffer" : 0,
            "byteLength" : 67680,
            "byteOffset" : 203040
        },
        {
            "buffer" : 0,
            "byteLength" : 20160,
            "byteOffset" : 270720
        },
        {
            "buffer" : 0,
            "byteLength" : 771948,
            "byteOffset" : 290880
        },
        {
            "buffer" : 0,
            "byteLength" : 771948,
            "byteOffset" : 1062828
        },
        {
            "buffer" : 0,
            "byteLength" : 514632,
            "byteOffset" : 1834776
        },
        {
            "buffer" : 0,
            "byteLength" : 173712,
            "byteOffset" : 2349408
        }
    ],
    "buffers" : [
        {
            "byteLength" : 2523120,
            "uri" : "data:application/octet-stream;base64,"
        }
    ]
}
