{
    "asset" : {
        "generator" : "Khronos glTF Blender I/O v1.6.16",
        "version" : "2.0"
    },
    "scene" : 0,
    "scenes" : [
        {
            "name" : "Scene",
            "nodes" : [
                0,
                2,
                3
            ]
        }
    ],
    "nodes" : [
        {
            "name" : "Light",
            "rotation" : [
                0.16907575726509094,
                0.7558803558349609,
                -0.27217137813568115,
                0.570947527885437
            ],
            "translation" : [
                4.076245307922363,
                5.903861999511719,
                -1.0054539442062378
            ]
        },
        {
            "mesh" : 0,
            "name" : "Stand_inscription",
            "translation" : [
                -0.09191501140594482,
                3.133150100708008,
                0.25826749205589294
            ]
        },
        {
            "children" : [
                1
            ],
            "name" : "Fifa_World_Cup",
            "scale" : [
                0.009999999776482582,
                0.009999999776482582,
                0.009999999776482582
            ],
            "translation" : [
                0,
                1.1532340049743652,
                0.009707067161798477
            ]
        },
        {
            "mesh" : 1,
            "name" : "fifalogo",
            "rotation" : [
                0.7071068286895752,
                0,
                0,
                0.7071068286895752
            ],
            "scale" : [
                0.20846660435199738,
                0.20846660435199738,
                0.20846660435199738
            ],
            "translation" : [
                0,
                1.0023471117019653,
                0.234871968626976
            ]
        }
    ],
    "materials" : [
        {
            "doubleSided" : true,
            "name" : "inscription",
            "normalTexture" : {
                "index" : 0,
                "scale" : 0.5
            },
            "pbrMetallicRoughness" : {
                "baseColorTexture" : {
                    "index" : 1
                },
                "roughnessFactor" : 0.4343145787715912
            }
        },
        {
            "doubleSided" : true,
            "name" : "sculpture",
            "normalTexture" : {
                "index" : 2,
                "scale" : 0.5999999642372131
            },
            "pbrMetallicRoughness" : {
                "baseColorTexture" : {
                    "index" : 3
                },
                "roughnessFactor" : 0.4343145787715912
            }
        },
        {
            "doubleSided" : true,
            "name" : "stand",
            "normalTexture" : {
                "index" : 4,
                "scale" : 0.5999999642372131
            },
            "pbrMetallicRoughness" : {
                "baseColorTexture" : {
                    "index" : 5
                },
                "roughnessFactor" : 0.4343145787715912
            }
        },
        {
            "doubleSided" : true,
            "name" : "podium1",
            "pbrMetallicRoughness" : {
                "baseColorFactor" : [
                    0.5,
                    0.5,
                    0.5,
                    1
                ],
                "metallicFactor" : 0,
                "roughnessFactor" : 0.5527864098548889
            }
        },
        {
            "alphaMode" : "BLEND",
            "doubleSided" : true,
            "name" : "fifalogo",
            "pbrMetallicRoughness" : {
                "baseColorTexture" : {
                    "index" : 6
                },
                "metallicFactor" : 0,
                "roughnessFactor" : 0.5
            }
        }
    ],
    "meshes" : [
        {
            "name" : "Mesh.002",
            "primitives" : [
                {
                    "attributes" : {
                        "POSITION" : 0,
                        "NORMAL" : 1,
                        "TEXCOORD_0" : 2,
                        "TEXCOORD_1" : 3
                    },
                    "indices" : 4,
                    "material" : 0
                },
                {
                    "attributes" : {
                        "POSITION" : 5,
                        "NORMAL" : 6,
                        "TEXCOORD_0" : 7,
                        "TEXCOORD_1" : 8
                    },
                    "indices" : 9,
                    "material" : 1
                },
                {
                    "attributes" : {
                        "POSITION" : 10,
                        "NORMAL" : 11,
                        "TEXCOORD_0" : 12,
                        "TEXCOORD_1" : 13
                    },
                    "indices" : 14,
                    "material" : 2
                },
                {
                    "attributes" : {
                        "POSITION" : 15,
                        "NORMAL" : 16,
                        "TEXCOORD_0" : 17,
                        "TEXCOORD_1" : 18
                    },
                    "indices" : 19,
                    "material" : 3
                }
            ]
        },
        {
            "name" : "fifalogo",
            "primitives" : [
                {
                    "attributes" : {
                        "POSITION" : 20,
                        "NORMAL" : 21,
                        "TEXCOORD_0" : 22
                    },
                    "indices" : 23,
                    "material" : 4
                }
            ]
        }
    ],
    "textures" : [
        {
            "sampler" : 0,
            "source" : 0
        },
        {
            "sampler" : 0,
            "source" : 1
        },
        {
            "sampler" : 0,
            "source" : 2
        },
        {
            "sampler" : 0,
            "source" : 1
        },
        {
            "sampler" : 0,
            "source" : 3
        },
        {
            "sampler" : 0,
            "source" : 4
        },
        {
            "sampler" : 1,
            "source" : 5
        }
    ],
    "images" : [
        {
            "bufferView" : 5,
            "mimeType" : "image/png",
            "name" : "inscription_normal"
        },
        {
            "bufferView" : 6,
            "mimeType" : "image/png",
            "name" : "inscription_refl"
        },
        {
            "bufferView" : 12,
            "mimeType" : "image/png",
            "name" : "sculpture_normal"
        },
        {
            "bufferView" : 18,
            "mimeType" : "image/png",
            "name" : "stand_normal"
        },
        {
            "bufferView" : 19,
            "mimeType" : "image/png",
            "name" : "stand_diffuse"
        },
        {
            "bufferView" : 29,
            "mimeType" : "image/png",
            "name" : "fifalogo"
        }
    ],
    "accessors" : [
        {
            "bufferView" : 0,
            "componentType" : 5126,
            "count" : 10143,
            "max" : [
                5.7656073570251465,
                0.8892879486083984,
                5.820270538330078
            ],
            "min" : [
                -5.765606880187988,
                -0.8892879486083984,
                -5.820270538330078
            ],
            "type" : "VEC3"
        },
        {
            "bufferView" : 1,
            "componentType" : 5126,
            "count" : 10143,
            "type" : "VEC3"
        },
        {
            "bufferView" : 2,
            "componentType" : 5126,
            "count" : 10143,
            "type" : "VEC2"
        },
        {
            "bufferView" : 3,
            "componentType" : 5126,
            "count" : 10143,
            "type" : "VEC2"
        },
        {
            "bufferView" : 4,
            "componentType" : 5123,
            "count" : 21228,
            "type" : "SCALAR"
        },
        {
            "bufferView" : 7,
            "componentType" : 5126,
            "count" : 9148,
            "max" : [
                8.033449172973633,
                36.26463317871094,
                8.068807601928711
            ],
            "min" : [
                -7.849619388580322,
                1.9919757843017578,
                -8.585342407226562
            ],
            "type" : "VEC3"
        },
        {
            "bufferView" : 8,
            "componentType" : 5126,
            "count" : 9148,
            "type" : "VEC3"
        },
        {
            "bufferView" : 9,
            "componentType" : 5126,
            "count" : 9148,
            "type" : "VEC2"
        },
        {
            "bufferView" : 10,
            "componentType" : 5126,
            "count" : 9148,
            "type" : "VEC2"
        },
        {
            "bufferView" : 11,
            "componentType" : 5123,
            "count" : 14004,
            "type" : "SCALAR"
        },
        {
            "bufferView" : 13,
            "componentType" : 5126,
            "count" : 1128,
            "max" : [
                6.587924480438232,
                2.048874855041504,
                6.4877448081970215
            ],
            "min" : [
                -6.587924957275391,
                -3.133148193359375,
                -6.4877448081970215
            ],
            "type" : "VEC3"
        },
        {
            "bufferView" : 14,
            "componentType" : 5126,
            "count" : 1128,
            "type" : "VEC3"
        },
        {
            "bufferView" : 15,
            "componentType" : 5126,
            "count" : 1128,
            "type" : "VEC2"
        },
        {
            "bufferView" : 16,
            "componentType" : 5126,
            "count" : 1128,
            "type" : "VEC2"
        },
        {
            "bufferView" : 17,
            "componentType" : 5123,
            "count" : 2532,
            "type" : "SCALAR"
        },
        {
            "bufferView" : 20,
            "componentType" : 5126,
            "count" : 96,
            "max" : [
                24.42046356201172,
                -3.0138015747070312,
                22.24592399597168
            ],
            "min" : [
                -23.647836685180664,
                -120.29804229736328,
                -21.891685485839844
            ],
            "type" : "VEC3"
        },
        {
            "bufferView" : 21,
            "componentType" : 5126,
            "count" : 96,
            "type" : "VEC3"
        },
        {
            "bufferView" : 22,
            "componentType" : 5126,
            "count" : 96,
            "type" : "VEC2"
        },
        {
            "bufferView" : 23,
            "componentType" : 5126,
            "count" : 96,
            "type" : "VEC2"
        },
        {
            "bufferView" : 24,
            "componentType" : 5123,
            "count" : 324,
            "type" : "SCALAR"
        },
        {
            "bufferView" : 25,
            "componentType" : 5126,
            "count" : 4,
            "max" : [
                0.6872852444648743,
                0,
                0.5
            ],
            "min" : [
                -0.6872852444648743,
                0,
                -0.5
            ],
            "type" : "VEC3"
        },
        {
            "bufferView" : 26,
            "componentType" : 5126,
            "count" : 4,
            "type" : "VEC3"
        },
        {
            "bufferView" : 27,
            "componentType" : 5126,
            "count" : 4,
            "type" : "VEC2"
        },
        {
            "bufferView" : 28,
            "componentType" : 5123,
            "count" : 6,
            "type" : "SCALAR"
        }
    ],
    "bufferViews" : [
        {
            "buffer" : 0,
            "byteLength" : 121716,
            "byteOffset" : 0
        },
        {
            "buffer" : 0,
            "byteLength" : 121716,
            "byteOffset" : 121716
        },
        {
            "buffer" : 0,
            "byteLength" : 81144,
            "byteOffset" : 243432
        },
        {
            "buffer" : 0,
            "byteLength" : 81144,
            "byteOffset" : 324576
        },
        {
            "buffer" : 0,
            "byteLength" : 42456,
            "byteOffset" : 405720
        },
        {
            "buffer" : 0,
            "byteLength" : 496530,
            "byteOffset" : 448176
        },
        {
            "buffer" : 0,
            "byteLength" : 1093,
            "byteOffset" : 944708
        },
        {
            "buffer" : 0,
            "byteLength" : 109776,
            "byteOffset" : 945804
        },
        {
            "buffer" : 0,
            "byteLength" : 109776,
            "byteOffset" : 1055580
        },
        {
            "buffer" : 0,
            "byteLength" : 73184,
            "byteOffset" : 1165356
        },
        {
            "buffer" : 0,
            "byteLength" : 73184,
            "byteOffset" : 1238540
        },
        {
            "buffer" : 0,
            "byteLength" : 28008,
            "byteOffset" : 1311724
        },
        {
            "buffer" : 0,
            "byteLength" : 273033,
            "byteOffset" : 1339732
        },
        {
            "buffer" : 0,
            "byteLength" : 13536,
            "byteOffset" : 1612768
        },
        {
            "buffer" : 0,
            "byteLength" : 13536,
            "byteOffset" : 1626304
        },
        {
            "buffer" : 0,
            "byteLength" : 9024,
            "byteOffset" : 1639840
        },
        {
            "buffer" : 0,
            "byteLength" : 9024,
            "byteOffset" : 1648864
        },
        {
            "buffer" : 0,
            "byteLength" : 5064,
            "byteOffset" : 1657888
        },
        {
            "buffer" : 0,
            "byteLength" : 51394,
            "byteOffset" : 1662952
        },
        {
            "buffer" : 0,
            "byteLength" : 193027,
            "byteOffset" : 1714348
        },
        {
            "buffer" : 0,
            "byteLength" : 1152,
            "byteOffset" : 1907376
        },
        {
            "buffer" : 0,
            "byteLength" : 1152,
            "byteOffset" : 1908528
        },
        {
            "buffer" : 0,
            "byteLength" : 768,
            "byteOffset" : 1909680
        },
        {
            "buffer" : 0,
            "byteLength" : 768,
            "byteOffset" : 1910448
        },
        {
            "buffer" : 0,
            "byteLength" : 648,
            "byteOffset" : 1911216
        },
        {
            "buffer" : 0,
            "byteLength" : 48,
            "byteOffset" : 1911864
        },
        {
            "buffer" : 0,
            "byteLength" : 48,
            "byteOffset" : 1911912
        },
        {
            "buffer" : 0,
            "byteLength" : 32,
            "byteOffset" : 1911960
        },
        {
            "buffer" : 0,
            "byteLength" : 12,
            "byteOffset" : 1911992
        },
        {
            "buffer" : 0,
            "byteLength" : 56223,
            "byteOffset" : 1912004
        }
    ],
    "samplers" : [
        {
            "magFilter" : 9729,
            "minFilter" : 9987
        },
        {
            "magFilter" : 9729,
            "minFilter" : 9987,
            "wrapS" : 33071,
            "wrapT" : 33071
        }
    ],
    "buffers" : [
        {
            "byteLength" : 1968228,
            "uri" : "data:application/octet-stream;base64,"
        }
    ]
}
